<?xml version="1.0" encoding="utf-8"?>
<!-- Generator: Adobe Illustrator 24.1.1, SVG Export Plug-In . SVG Version: 6.00 Build 0)  -->
<svg version="1.1" id="Слой_1" xmlns="http://www.w3.org/2000/svg" xmlns:xlink="http://www.w3.org/1999/xlink" x="0px" y="0px"
	 viewBox="0 0 242 80" style="enable-background:new 0 0 242 80;" xml:space="preserve">
<style type="text/css">
	.st0{fill:#1345AE;}
</style>
<g transform="translate(0.000000,80.000000) scale(0.100000,-0.100000)">
	<path class="st0" d="M445,565c-79-28-119-125-96-230c21-95,97-145,198-130c86,13,137,82,137,185C684,535,578,612,445,565z M561,510
		c65-35,65-205,0-240c-11-5-32-10-46-10c-67,0-99,52-93,148c4,55,8,68,32,88C483,521,528,527,561,510z"/>
	<path class="st0" d="M1185,565c-79-28-119-125-96-230c21-95,97-145,198-130c86,13,137,82,137,185C1424,535,1318,612,1185,565z
		 M1301,510c65-35,65-205,0-240c-11-5-32-10-46-10c-67,0-99,52-93,148c4,55,8,68,32,88C1223,521,1268,527,1301,510z"/>
	<path class="st0" d="M1560,558c-59-31-85-81-85-168c0-83,24-126,85-158c74-37,158-22,197,37c30,45,29,57-7,70c-28,9-32,8-40-13
		c-18-48-84-71-121-43c-28,21-39,54-39,112c0,85,27,124,88,125c30,0,65-23,73-49c3-7,16-9,37-5c27,6,32,10,26,28
		C1751,571,1647,602,1560,558z"/>
	<path class="st0" d="M0,390V210h35h35v80v80h70h70v-80v-80h35h35v180v180h-35h-35v-70v-70h-70H70v70v70H35H0V390z"/>
	<path class="st0" d="M750,390V208l118,3c131,4,145,10,169,67c18,44,2,96-35,117c-15,8-21,14-15,15c15,0,43,52,43,79
		c0,11-11,32-24,48c-23,27-28,28-140,31l-116,4V390z M954,488c21-34-4-53-73-56l-61-3v41v41l61-3C927,506,946,500,954,488z M951,360
		c22-12,26-59,7-78c-7-7-39-12-75-12h-63v50v50h56C906,370,940,365,951,360z"/>
	<path class="st0" d="M1820,540c0-29,1-30,50-30h50V360V210h40h40v150v150h50c49,0,50,1,50,30v30h-140h-140V540z"/>
	<path class="st0" d="M2140,390V210h34c33,0,38,4,103,110l68,111l3-111l3-110h34h35v180v180h-34c-33,0-37-5-97-102
		c-92-153-89-152-89-15v117h-30h-30V390z"/>
</g>
</svg>
