<?xml version="1.0" standalone="no"?>
<!DOCTYPE svg PUBLIC "-//W3C//DTD SVG 20010904//EN"
 "http://www.w3.org/TR/2001/REC-SVG-20010904/DTD/svg10.dtd">
<svg version="1.0" xmlns="http://www.w3.org/2000/svg"
 width="242.000000pt" height="80.000000pt" viewBox="0 0 242.000000 80.000000"
 preserveAspectRatio="xMidYMid meet">

<g transform="translate(0.000000,80.000000) scale(0.100000,-0.100000)"
fill="#000000" stroke="none">
<path d="M445 565 c-79 -28 -119 -125 -96 -230 21 -95 97 -145 198 -130 86 13
137 82 137 185 0 145 -106 222 -239 175z m116 -55 c65 -35 65 -205 0 -240 -11
-5 -32 -10 -46 -10 -67 0 -99 52 -93 148 4 55 8 68 32 88 29 25 74 31 107 14z"/>
<path d="M1185 565 c-79 -28 -119 -125 -96 -230 21 -95 97 -145 198 -130 86
13 137 82 137 185 0 145 -106 222 -239 175z m116 -55 c65 -35 65 -205 0 -240
-11 -5 -32 -10 -46 -10 -67 0 -99 52 -93 148 4 55 8 68 32 88 29 25 74 31 107
14z"/>
<path d="M1560 558 c-59 -31 -85 -81 -85 -168 0 -83 24 -126 85 -158 74 -37
158 -22 197 37 30 45 29 57 -7 70 -28 9 -32 8 -40 -13 -18 -48 -84 -71 -121
-43 -28 21 -39 54 -39 112 0 85 27 124 88 125 30 0 65 -23 73 -49 3 -7 16 -9
37 -5 27 6 32 10 26 28 -23 77 -127 108 -214 64z"/>
<path d="M0 390 l0 -180 35 0 35 0 0 80 0 80 70 0 70 0 0 -80 0 -80 35 0 35 0
0 180 0 180 -35 0 -35 0 0 -70 0 -70 -70 0 -70 0 0 70 0 70 -35 0 -35 0 0
-180z"/>
<path d="M750 390 l0 -182 118 3 c131 4 145 10 169 67 18 44 2 96 -35 117 -15
8 -21 14 -15 15 15 0 43 52 43 79 0 11 -11 32 -24 48 -23 27 -28 28 -140 31
l-116 4 0 -182z m204 98 c21 -34 -4 -53 -73 -56 l-61 -3 0 41 0 41 61 -3 c46
-2 65 -8 73 -20z m-3 -128 c22 -12 26 -59 7 -78 -7 -7 -39 -12 -75 -12 l-63 0
0 50 0 50 56 0 c30 0 64 -5 75 -10z"/>
<path d="M1820 540 c0 -29 1 -30 50 -30 l50 0 0 -150 0 -150 40 0 40 0 0 150
0 150 50 0 c49 0 50 1 50 30 l0 30 -140 0 -140 0 0 -30z"/>
<path d="M2140 390 l0 -180 34 0 c33 0 38 4 103 110 l68 111 3 -111 3 -110 34
0 35 0 0 180 0 180 -34 0 c-33 0 -37 -5 -97 -102 -92 -153 -89 -152 -89 -15
l0 117 -30 0 -30 0 0 -180z"/>
</g>
</svg>
